<svg xmlns="http://www.w3.org/2000/svg" id="Layer_2" data-name="Layer 2" width="159.736" height="64.148" viewBox="0 0 159.736 64.148"><g id="Lager_1" data-name="Lager 1"><g><g><path d="M22.587,33.592c-.209,0-.404-.065-.564-.175-3.886,3.545-8.951,5.579-14.265,5.67l-7.757.132v11.63c0,7.345,5.954,13.299,13.299,13.299h8.752l.903-30.556h-.366Z" fill="#396081"></path><path d="M50.85,0h-16.548l-9.083,28.114h.85c.551,0,.998.447.998.998v2.291c5.27,1.544,9.785,5.037,12.598,9.804l10.131,17.169c.148.317-.269.591-.502.331l-22.67-25.284c-.159.106-.35.169-.555.169h-.366l.903,30.556h24.243c7.345,0,13.299-5.954,13.299-13.299V13.299c0-7.345-5.954-13.299-13.299-13.299Z" fill="#396081"></path><path d="M21.589,29.112c0-.551.447-.998.998-.998h.813c-1.284-5.302-.531-10.921,2.156-15.721L32.493,0H13.299C5.954,0,0,5.954,0,13.299v22.862l21.589-4.712v-2.337Z" fill="#396081"></path><circle cx="49.564" cy="14.584" r="10.151" fill="#eeb02a"></circle></g><g><path d="M86.978,9.68h-5.428c-.195,0-.353.158-.353.353v1.634c0,.195.159.353.353.353h3.163c.057,0,.11.022.147.063.038.04.056.093.052.15-.065.982-.353,1.749-.881,2.342-.612.687-1.489,1.035-2.607,1.035-.793,0-1.471-.217-2.074-.664-.585-.435-1.053-1.088-1.391-1.942-.35-.885-.52-1.884-.52-3.055s.175-2.204.52-3.076c.33-.834.798-1.481,1.391-1.921.602-.447,1.281-.664,2.074-.664.923,0,1.68.271,2.252.806.586.548.977,1.343,1.194,2.431.038.189.217.311.406.279l1.719-.294c.188-.032.318-.211.29-.4-.156-1.047-.501-1.965-1.026-2.731-.554-.776-1.252-1.384-2.075-1.806-.809-.415-1.738-.626-2.76-.626-1.268,0-2.407.338-3.384,1.005-.978.667-1.739,1.613-2.263,2.812-.52,1.192-.784,2.6-.784,4.186,0,1.572.264,2.973.784,4.165.532,1.219,1.293,2.172,2.263,2.833.978.666,2.116,1.005,3.384,1.005,1.177,0,2.224-.27,3.11-.801.891-.512,1.594-1.275,2.09-2.268.469-.96.706-2.09.706-3.361v-1.488c0-.195-.158-.353-.353-.353Z" fill="#396081"></path><path d="M90.855,17.638h1.74c.195,0,.353-.159.353-.353v-5.398c0-.11.09-.2.2-.2h2.235c.075,0,.142.041.177.107l2.967,5.655c.061.117.181.189.313.189h2.033c.125,0,.239-.064.303-.172.065-.108.068-.238.009-.348l-2.905-5.433c-.029-.054-.032-.117-.008-.173.023-.055.069-.096.126-.112,2.121-.604,3.29-2.184,3.29-4.447,0-2.894-2.014-4.691-5.257-4.691h-5.574c-.195,0-.353.159-.353.353v14.669c0,.195.158.353.353.353ZM92.948,9.145v-4.342c0-.11.09-.2.2-.2h3.135c1.99,0,2.958.769,2.958,2.35,0,1.977-1.608,2.392-2.958,2.392h-3.135c-.11,0-.2-.09-.2-.2Z" fill="#396081"></path><path d="M105.735,17.638h9.849c.195,0,.353-.159.353-.353v-1.634c0-.195-.159-.353-.353-.353h-7.557c-.11,0-.2-.09-.2-.2v-4.028c0-.11.09-.2.2-.2h6.97c.195,0,.353-.158.353-.353v-1.572c0-.195-.158-.353-.353-.353h-6.97c-.11,0-.2-.09-.2-.2v-3.588c0-.11.09-.2.2-.2h7.557c.195,0,.353-.158.353-.353v-1.635c0-.195-.159-.353-.353-.353h-9.849c-.195,0-.353.159-.353.353v14.669c0,.195.158.353.353.353Z" fill="#396081"></path><path d="M120.404,17.638h9.849c.195,0,.353-.159.353-.353v-1.634c0-.195-.158-.353-.353-.353h-7.557c-.11,0-.2-.09-.2-.2v-4.028c0-.11.09-.2.2-.2h6.97c.195,0,.353-.158.353-.353v-1.572c0-.195-.159-.353-.353-.353h-6.97c-.11,0-.2-.09-.2-.2v-3.588c0-.11.09-.2.2-.2h7.557c.195,0,.353-.158.353-.353v-1.635c0-.195-.158-.353-.353-.353h-9.849c-.195,0-.353.159-.353.353v14.669c0,.195.158.353.353.353Z" fill="#396081"></path><path d="M134.864,17.638h1.76c.195,0,.353-.159.353-.353v-9.216c0-.114.077-.175.15-.193.072-.019.17-.003.225.096l5.271,9.485c.062.112.181.182.309.182h1.781c.195,0,.353-.159.353-.353V2.615c0-.195-.158-.353-.353-.353h-1.74c-.195,0-.353.159-.353.353v9.204c0,.114-.077.174-.149.193-.072.019-.169.003-.225-.096l-5.293-9.474c-.062-.112-.181-.181-.308-.181h-1.781c-.195,0-.353.159-.353.353v14.669c0,.195.159.353.353.353Z" fill="#396081"></path><path d="M81.97,24.386h-5.784c-.195,0-.353.159-.353.353v14.669c0,.195.158.353.353.353h1.74c.195,0,.353-.159.353-.353v-5.105c0-.11.09-.2.2-.2h3.491c3.292,0,5.257-1.809,5.257-4.838,0-3.01-2.014-4.88-5.257-4.88ZM84.781,29.266c0,1.75-.872,2.497-2.916,2.497h-3.386c-.11,0-.2-.09-.2-.2v-4.636c0-.11.09-.2.2-.2h3.386c1.989,0,2.916.807,2.916,2.539Z" fill="#396081"></path><path d="M95.78,40.076c3.715,0,6.116-3.141,6.116-8.002s-2.401-8.002-6.116-8.002-6.116,3.141-6.116,8.002,2.401,8.002,6.116,8.002ZM95.78,26.413c2.264,0,3.67,2.169,3.67,5.661s-1.406,5.661-3.67,5.661-3.67-2.169-3.67-5.661,1.406-5.661,3.67-5.661Z" fill="#396081"></path><path d="M116.737,24.386h-1.802c-.179,0-.33.134-.351.313l-1.064,9.189c-.014.121-.108.171-.184.176-.075.006-.176-.03-.208-.147l-1.541-5.707c-.041-.154-.182-.261-.341-.261h-1.593c-.159,0-.3.107-.341.261l-1.541,5.707c-.032.117-.131.154-.208.147-.076-.006-.17-.055-.183-.176l-1.064-9.189c-.021-.178-.172-.313-.351-.313h-1.802c-.102,0-.199.044-.266.12s-.098.178-.085.279l1.928,14.669c.023.175.174.307.35.307h1.991c.157,0,.293-.101.338-.251l1.838-6.106c.032-.105.12-.142.191-.142h0c.072,0,.16.037.191.142l1.838,6.106c.045.15.181.251.338.251h1.991c.177,0,.327-.132.35-.307l1.928-14.669c.013-.101-.018-.203-.085-.279-.067-.077-.164-.12-.266-.12Z" fill="#396081"></path><path d="M120.404,39.762h9.849c.195,0,.353-.159.353-.353v-1.634c0-.195-.158-.353-.353-.353h-7.557c-.11,0-.2-.09-.2-.2v-4.028c0-.11.09-.2.2-.2h6.97c.195,0,.353-.158.353-.353v-1.572c0-.195-.159-.353-.353-.353h-6.97c-.11,0-.2-.09-.2-.2v-3.588c0-.11.09-.2.2-.2h7.557c.195,0,.353-.158.353-.353v-1.635c0-.195-.158-.353-.353-.353h-9.849c-.195,0-.353.159-.353.353v14.669c0,.195.158.353.353.353Z" fill="#396081"></path><path d="M140.439,24.386h-5.574c-.195,0-.353.159-.353.353v14.669c0,.195.159.353.353.353h1.739c.195,0,.353-.159.353-.353v-5.398c0-.11.09-.2.2-.2h2.235c.074,0,.142.041.177.107l2.967,5.655c.061.117.181.189.313.189h2.033c.125,0,.239-.064.303-.172.065-.108.068-.238.009-.348l-2.905-5.433c-.029-.054-.032-.117-.008-.173.023-.055.069-.096.126-.112,2.121-.604,3.29-2.184,3.29-4.447,0-2.894-2.014-4.691-5.257-4.691ZM143.25,29.077c0,1.977-1.608,2.392-2.958,2.392h-3.135c-.11,0-.2-.09-.2-.2v-4.342c0-.11.09-.2.2-.2h3.135c1.99,0,2.958.769,2.958,2.35Z" fill="#396081"></path><path d="M81.618,52.71c-2.639-.86-3.444-1.393-3.444-2.283,0-1.112,1.147-1.889,2.79-1.889,1.783,0,2.885.901,3.367,2.753l.002.009c.052.18.233.289.417.247l1.677-.377c.188-.042.308-.23.268-.419-.591-2.767-2.832-4.555-5.71-4.555-3.083,0-5.236,1.757-5.236,4.272,0,2.115,1.327,3.284,5.069,4.466,2.9.893,3.879,1.627,3.879,2.911,0,1.205-1.231,2.015-3.063,2.015-2.557,0-3.736-1.028-4.071-3.55-.013-.096-.063-.181-.142-.239-.078-.057-.175-.079-.27-.062l-1.761.314c-.189.034-.315.209-.287.399.542,3.686,2.672,5.478,6.511,5.478,3.295,0,5.509-1.767,5.509-4.398,0-2.81-2.106-4.032-5.504-5.093Z" fill="#396081"></path><path d="M102.067,46.51h-1.802c-.179,0-.33.135-.351.313l-1.064,9.189c-.014.121-.108.171-.184.176-.078.006-.176-.03-.208-.147l-1.541-5.707c-.041-.154-.182-.261-.341-.261h-1.593c-.159,0-.3.107-.341.261l-1.541,5.707c-.032.118-.131.153-.208.147-.076-.006-.17-.055-.184-.176l-1.064-9.189c-.021-.178-.172-.313-.351-.313h-1.802c-.102,0-.199.044-.266.12s-.098.178-.085.279l1.928,14.669c.023.175.174.307.35.307h1.991c.157,0,.293-.101.338-.251l1.838-6.106c.032-.105.12-.142.191-.142s.16.037.191.142l1.838,6.106c.045.15.181.252.338.252h1.991c.177,0,.327-.132.35-.307l1.928-14.669c.013-.101-.018-.203-.085-.279s-.164-.12-.266-.12Z" fill="#396081"></path><path d="M115.584,46.51h-9.849c-.195,0-.353.159-.353.353v14.669c0,.195.158.353.353.353h9.849c.195,0,.353-.159.353-.353v-1.634c0-.195-.159-.353-.353-.353h-7.557c-.11,0-.2-.09-.2-.2v-4.028c0-.11.09-.2.2-.2h6.97c.195,0,.353-.158.353-.353v-1.572c0-.195-.158-.353-.353-.353h-6.97c-.11,0-.2-.09-.2-.2v-3.588c0-.11.09-.2.2-.2h7.557c.195,0,.353-.158.353-.353v-1.635c0-.195-.159-.353-.353-.353Z" fill="#396081"></path><path d="M124.554,46.51h-4.359c-.195,0-.353.159-.353.353v14.669c0,.195.158.353.353.353h4.233c2.089,0,3.768-.643,4.99-1.91,1.206-1.25,1.817-3.201,1.817-5.799,0-5.659-3.6-7.667-6.682-7.667ZM122.288,59.345v-10.294c0-.11.09-.2.2-.2h1.962c2.799,0,4.341,1.891,4.341,5.326,0,3.662-1.426,5.368-4.487,5.368h-1.815c-.11,0-.2-.09-.2-.2Z" fill="#396081"></path><path d="M144.923,46.51h-9.849c-.195,0-.353.159-.353.353v14.669c0,.195.158.353.353.353h9.849c.195,0,.353-.159.353-.353v-1.634c0-.195-.158-.353-.353-.353h-7.557c-.11,0-.2-.09-.2-.2v-4.028c0-.11.09-.2.2-.2h6.97c.195,0,.353-.158.353-.353v-1.572c0-.195-.158-.353-.353-.353h-6.97c-.11,0-.2-.09-.2-.2v-3.588c0-.11.09-.2.2-.2h7.557c.195,0,.353-.158.353-.353v-1.635c0-.195-.158-.353-.353-.353Z" fill="#396081"></path><path d="M159.383,46.51h-1.739c-.195,0-.353.159-.353.353v9.204c0,.114-.077.174-.149.193-.072.019-.169.004-.225-.096l-5.293-9.474c-.062-.112-.18-.181-.308-.181h-1.781c-.195,0-.353.159-.353.353v14.669c0,.195.158.353.353.353h1.76c.195,0,.353-.159.353-.353v-9.216c0-.114.077-.175.15-.193.072-.019.169-.003.225.096l5.271,9.485c.062.112.181.182.309.182h1.781c.195,0,.353-.159.353-.353v-14.669c0-.195-.159-.353-.353-.353Z" fill="#396081"></path></g></g></g></svg>